<?xml version="1.0" encoding="UTF-8" standalone="no"?>
<!-- Created with Inkscape (http://www.inkscape.org/) -->

<svg
   xmlns:dc="http://purl.org/dc/elements/1.1/"
   xmlns:cc="http://creativecommons.org/ns#"
   xmlns:rdf="http://www.w3.org/1999/02/22-rdf-syntax-ns#"
   xmlns:svg="http://www.w3.org/2000/svg"
   xmlns="http://www.w3.org/2000/svg"
   xmlns:xlink="http://www.w3.org/1999/xlink"
   xmlns:sodipodi="http://sodipodi.sourceforge.net/DTD/sodipodi-0.dtd"
   xmlns:inkscape="http://www.inkscape.org/namespaces/inkscape"
   width="210mm"
   height="297mm"
   id="svg2"
   version="1.1"
   inkscape:version="0.48.2 r9819"
   inkscape:export-filename="G:\Unity5 Projects\Particle Effects\Advance Particle Effects\Assets\Textures\Bubbles\bubble.png"
   inkscape:export-xdpi="90"
   inkscape:export-ydpi="90"
   sodipodi:docname="Neues Dokument 1">
  <defs
     id="defs4">
    <linearGradient
       inkscape:collect="always"
       id="linearGradient3982">
      <stop
         style="stop-color:#ffffff;stop-opacity:1;"
         offset="0"
         id="stop3984" />
      <stop
         style="stop-color:#ffffff;stop-opacity:0;"
         offset="1"
         id="stop3986" />
    </linearGradient>
    <linearGradient
       inkscape:collect="always"
       id="linearGradient3940">
      <stop
         style="stop-color:#ffffff;stop-opacity:1;"
         offset="0"
         id="stop3942" />
      <stop
         style="stop-color:#ffffff;stop-opacity:0"
         offset="1"
         id="stop3944" />
    </linearGradient>
    <linearGradient
       inkscape:collect="always"
       id="linearGradient3812">
      <stop
         style="stop-color:#ffffff;stop-opacity:1;"
         offset="0"
         id="stop3814" />
      <stop
         style="stop-color:#ffffff;stop-opacity:0"
         offset="1"
         id="stop3816" />
    </linearGradient>
    <linearGradient
       inkscape:collect="always"
       id="linearGradient2998">
      <stop
         style="stop-color:#ffffff;stop-opacity:1;"
         offset="0"
         id="stop3000" />
      <stop
         style="stop-color:#ffffff;stop-opacity:0;"
         offset="1"
         id="stop3002" />
    </linearGradient>
    <linearGradient
       inkscape:collect="always"
       xlink:href="#linearGradient2998"
       id="linearGradient3004"
       x1="277.14285"
       y1="658.07648"
       x2="347.14285"
       y2="560.93359"
       gradientUnits="userSpaceOnUse"
       gradientTransform="translate(0,-6)" />
    <linearGradient
       inkscape:collect="always"
       xlink:href="#linearGradient2998"
       id="linearGradient3008"
       gradientUnits="userSpaceOnUse"
       x1="277.14285"
       y1="658.07648"
       x2="347.14285"
       y2="560.93359"
       gradientTransform="matrix(-1,0,0,1,724.28654,-6)" />
    <linearGradient
       inkscape:collect="always"
       xlink:href="#linearGradient2998"
       id="linearGradient3016"
       gradientUnits="userSpaceOnUse"
       gradientTransform="matrix(-1,0,0,1,724.28654,-62)"
       x1="277.14285"
       y1="658.07648"
       x2="347.14285"
       y2="560.93359" />
    <linearGradient
       inkscape:collect="always"
       xlink:href="#linearGradient2998"
       id="linearGradient3798"
       gradientUnits="userSpaceOnUse"
       gradientTransform="translate(5.6403,-62)"
       x1="277.14285"
       y1="658.07648"
       x2="347.14285"
       y2="560.93359" />
    <filter
       inkscape:collect="always"
       id="filter3808"
       x="-0.13602795"
       width="1.2720559"
       y="-0.10735101"
       height="1.214702">
      <feGaussianBlur
         inkscape:collect="always"
         stdDeviation="2.3561112"
         id="feGaussianBlur3810" />
    </filter>
    <linearGradient
       inkscape:collect="always"
       xlink:href="#linearGradient3812"
       id="linearGradient3818"
       x1="222.85715"
       y1="378.79074"
       x2="310"
       y2="277.36218"
       gradientUnits="userSpaceOnUse" />
    <filter
       inkscape:collect="always"
       id="filter3820"
       x="-0.12870614"
       width="1.2574123"
       y="-0.11239706"
       height="1.2247941">
      <feGaussianBlur
         inkscape:collect="always"
         stdDeviation="5.5194989"
         id="feGaussianBlur3822" />
    </filter>
    <filter
       inkscape:collect="always"
       id="filter3872"
       x="-0.12268903"
       width="1.2453781"
       y="-0.087860696"
       height="1.1757214">
      <feGaussianBlur
         inkscape:collect="always"
         stdDeviation="7.7994746"
         id="feGaussianBlur3874" />
    </filter>
    <filter
       inkscape:collect="always"
       id="filter3876"
       x="-0.11621634"
       width="1.2324327"
       y="-0.078168274"
       height="1.1563365">
      <feGaussianBlur
         inkscape:collect="always"
         stdDeviation="7.7994746"
         id="feGaussianBlur3878" />
    </filter>
    <filter
       inkscape:collect="always"
       id="filter3880"
       x="-0.12268903"
       width="1.2453781"
       y="-0.087860696"
       height="1.1757214">
      <feGaussianBlur
         inkscape:collect="always"
         stdDeviation="7.7994746"
         id="feGaussianBlur3882" />
    </filter>
    <filter
       inkscape:collect="always"
       id="filter3884"
       x="-0.11621634"
       width="1.2324327"
       y="-0.078168274"
       height="1.1563365">
      <feGaussianBlur
         inkscape:collect="always"
         stdDeviation="7.7994746"
         id="feGaussianBlur3886" />
    </filter>
    <filter
       inkscape:collect="always"
       id="filter3892"
       x="-0.17417139"
       width="1.3483428"
       y="-0.64951411"
       height="2.2990282">
      <feGaussianBlur
         inkscape:collect="always"
         stdDeviation="6.5610835"
         id="feGaussianBlur3894" />
    </filter>
    <filter
       inkscape:collect="always"
       id="filter3904">
      <feGaussianBlur
         inkscape:collect="always"
         stdDeviation="1.7161955"
         id="feGaussianBlur3906" />
    </filter>
    <filter
       inkscape:collect="always"
       id="filter3932"
       x="-0.062256161"
       width="1.1245123"
       y="-0.39720691"
       height="1.7944138">
      <feGaussianBlur
         inkscape:collect="always"
         stdDeviation="7.0487214"
         id="feGaussianBlur3934" />
    </filter>
    <linearGradient
       inkscape:collect="always"
       xlink:href="#linearGradient3940"
       id="linearGradient3946"
       x1="365.67523"
       y1="424.0473"
       x2="367.69553"
       y2="317.98129"
       gradientUnits="userSpaceOnUse" />
    <filter
       inkscape:collect="always"
       id="filter3952"
       x="-0.21400667"
       width="1.4280133"
       y="-0.18035917"
       height="1.3607183">
      <feGaussianBlur
         inkscape:collect="always"
         stdDeviation="9.1854255"
         id="feGaussianBlur3954" />
    </filter>
    <filter
       inkscape:collect="always"
       id="filter3968"
       x="-0.23972118"
       width="1.4794424"
       y="-0.26375133"
       height="1.5275027">
      <feGaussianBlur
         inkscape:collect="always"
         stdDeviation="3.4569889"
         id="feGaussianBlur3970" />
    </filter>
    <linearGradient
       inkscape:collect="always"
       xlink:href="#linearGradient3982"
       id="linearGradient3988"
       x1="348.57144"
       y1="223.79076"
       x2="357.14285"
       y2="688.07648"
       gradientUnits="userSpaceOnUse" />
  </defs>
  <sodipodi:namedview
     id="base"
     pagecolor="#ffffff"
     bordercolor="#666666"
     borderopacity="1.0"
     inkscape:pageopacity="0.0"
     inkscape:pageshadow="2"
     inkscape:zoom="0.49497475"
     inkscape:cx="458.16303"
     inkscape:cy="497.12683"
     inkscape:document-units="px"
     inkscape:current-layer="layer1"
     showgrid="false"
     inkscape:window-width="1920"
     inkscape:window-height="1018"
     inkscape:window-x="1272"
     inkscape:window-y="-8"
     inkscape:window-maximized="1" />
  <metadata
     id="metadata7">
    <rdf:RDF>
      <cc:Work
         rdf:about="">
        <dc:format>image/svg+xml</dc:format>
        <dc:type
           rdf:resource="http://purl.org/dc/dcmitype/StillImage" />
        <dc:title></dc:title>
      </cc:Work>
    </rdf:RDF>
  </metadata>
  <g
     inkscape:label="Ebene 1"
     inkscape:groupmode="layer"
     id="layer1">
    <rect
       style="fill:#000000;fill-opacity:1;fill-rule:nonzero;stroke:none"
       id="rect2985"
       width="600"
       height="600"
       x="62.020306"
       y="150.89154" />
    <path
       style="opacity:0.05387205;fill:url(#linearGradient3016);fill-opacity:1;stroke:none;filter:url(#filter3884)"
       d="m 516.4294,611.07646 c 0,0 39.28571,-102.14285 -5.00001,-159.99999 -41.75549,-54.55152 -93.57142,34.28571 -86.42856,66.42857 7.14285,32.14285 13.57143,122.85714 -53.57143,155.71428 0,0 28.03571,-1.42857 58.03571,-9.55357 30,-8.125 61.96429,-34.375 86.96429,-52.58929 z"
       id="path3012"
       inkscape:connector-curvature="0"
       sodipodi:nodetypes="csscsc" />
    <path
       style="fill:url(#linearGradient3988);fill-opacity:1;fill-rule:nonzero;stroke:none"
       d="M 362.15625 222.375 C 235.52524 222.375 132.84375 325.02524 132.84375 451.65625 C 132.84375 578.28726 235.52524 680.9375 362.15625 680.9375 C 488.78726 680.9375 591.4375 578.28726 591.4375 451.65625 C 591.4375 325.02524 488.78726 222.375 362.15625 222.375 z M 362.15625 225.21875 C 487.2093 225.21875 588.5625 326.6032 588.5625 451.65625 C 588.5625 576.7093 487.2093 678.0625 362.15625 678.0625 C 237.1032 678.0625 135.71875 576.7093 135.71875 451.65625 C 135.71875 326.6032 237.1032 225.21875 362.15625 225.21875 z "
       id="path2989" />
    <path
       style="opacity:0.55;fill:url(#linearGradient3004);fill-opacity:1;stroke:none;filter:url(#filter3880)"
       d="m 229.28571,631.36218 c 0,0 -72.85714,-41.42857 -58.57142,-148.57142 9.07936,-68.09519 89.99999,8.57142 82.85713,40.71428 -7.14285,32.14285 0.71429,112.14286 67.85715,145 0,0 -42.14286,-0.71429 -92.14286,-37.14286 z"
       id="path2994"
       inkscape:connector-curvature="0"
       sodipodi:nodetypes="csscc" />
    <path
       sodipodi:nodetypes="csscc"
       inkscape:connector-curvature="0"
       id="path3006"
       d="m 495.00083,631.36218 c 0,0 72.85714,-41.42857 58.57142,-148.57142 -9.07936,-68.09519 -89.99999,8.57142 -82.85713,40.71428 7.14285,32.14285 -0.71429,112.14286 -67.85715,145 0,0 42.14286,-0.71429 92.14286,-37.14286 z"
       style="opacity:0.55;fill:url(#linearGradient3008);fill-opacity:1;stroke:none;filter:url(#filter3872)" />
    <path
       sodipodi:type="arc"
       style="opacity:0.11784512;fill:#ffffff;fill-opacity:1;fill-rule:nonzero;stroke:none;filter:url(#filter3892)"
       id="path3786"
       sodipodi:cx="366.93793"
       sodipodi:cy="669.00928"
       sodipodi:rx="45.204327"
       sodipodi:ry="12.121831"
       d="m 412.14225,669.00928 a 45.204327,12.121831 0 1 1 -90.40865,0 45.204327,12.121831 0 1 1 90.40865,0 z"
       transform="translate(0,-6)" />
    <path
       sodipodi:nodetypes="csscsc"
       inkscape:connector-curvature="0"
       id="path3796"
       d="m 213.49744,611.07646 c 0,0 -39.28571,-102.14285 5.00001,-159.99999 41.75549,-54.55152 93.57142,34.28571 86.42856,66.42857 -7.14285,32.14285 -13.57143,122.85714 53.57143,155.71428 0,0 -28.03571,-1.42857 -58.03571,-9.55357 -30,-8.125 -61.96429,-34.375 -86.96429,-52.58929 z"
       style="opacity:0.07070707;fill:url(#linearGradient3798);fill-opacity:1;stroke:none;filter:url(#filter3876)" />
    <path
       style="fill:url(#linearGradient3818);fill-opacity:1;stroke:none;filter:url(#filter3820)"
       d="m 200.38256,376.17382 c 0,0 -3.95699,-52.74339 86.04601,-110.9545 0,0 16.41854,16.81272 20.71429,21.42858 0,0 -74.28571,26.42856 -79.28572,96.42857 z"
       id="path3800"
       inkscape:connector-curvature="0"
       sodipodi:nodetypes="ccccc"
       transform="matrix(1.0717507,0,0,1.0593792,-50.131031,-27.819064)" />
    <path
       sodipodi:type="arc"
       style="fill:#ffffff;stroke:none;filter:url(#filter3808)"
       id="path3802"
       sodipodi:cx="203.21428"
       sodipodi:cy="411.64789"
       sodipodi:rx="31.785715"
       sodipodi:ry="10.714286"
       d="m 234.99999,411.64789 a 31.785715,10.714286 0 1 1 -63.57143,0 31.785715,10.714286 0 1 1 63.57143,0 z"
       transform="matrix(0.59496709,-0.80375006,0.80375006,0.59496709,-246.41069,220.06444)" />
    <path
       transform="matrix(0.38601189,-0.44484274,0.52146931,0.32928992,187.96655,585.7805)"
       d="m 234.99999,411.64789 a 31.785715,10.714286 0 1 1 -63.57143,0 31.785715,10.714286 0 1 1 63.57143,0 z"
       sodipodi:ry="10.714286"
       sodipodi:rx="31.785715"
       sodipodi:cy="411.64789"
       sodipodi:cx="203.21428"
       id="path3896"
       style="fill:#ffffff;stroke:none;filter:url(#filter3808)"
       sodipodi:type="arc" />
    <path
       style="fill:#ffffff;stroke:none;stroke-width:1px;stroke-linecap:butt;stroke-linejoin:miter;stroke-opacity:1;filter:url(#filter3904)"
       d="m 222.85714,620.21933 c 0,0 -97.14285,-82.85715 -59.28571,-227.14286 0,0 -32.14286,115.00001 59.28571,227.14286 z"
       id="path3898"
       inkscape:connector-curvature="0" />
    <path
       inkscape:connector-curvature="0"
       id="path3908"
       d="m 527.41813,544.45789 c 0,0 -97.14285,-82.85715 -59.28571,-227.14286 0,0 -32.14286,115.00001 59.28571,227.14286 z"
       style="fill:#ffffff;stroke:none;filter:url(#filter3904)"
       transform="matrix(-0.57319702,0.81941758,0.81941758,0.57319702,434.61878,-318.98053)" />
    <path
       style="opacity:0.10437712;fill:#ffffff;stroke:none;filter:url(#filter3932)"
       d="m 242.43661,426.0676 c 0,-4.04061 125.25892,-83.84266 271.73104,-14.14213 0,0 -171.72594,-37.37565 -271.73104,14.14213 z"
       id="path3910"
       inkscape:connector-curvature="0"
       transform="matrix(0.99912724,0.04177027,-0.04177027,0.99912724,-1.9552664,-35.651563)" />
    <path
       transform="matrix(0.74839184,-0.02140972,-0.03128784,-0.51211154,98.607893,734.24663)"
       inkscape:connector-curvature="0"
       id="path3936"
       d="m 242.43661,426.0676 c 0,-4.04061 125.25892,-83.84266 271.73104,-14.14213 0,0 -171.72594,-37.37565 -271.73104,14.14213 z"
       style="opacity:0.26262626;fill:#ffffff;stroke:none;filter:url(#filter3932)" />
    <path
       style="fill:url(#linearGradient3946);stroke:none;stroke-width:1px;stroke-linecap:butt;stroke-linejoin:miter;stroke-opacity:1;fill-opacity:1;filter:url(#filter3952);opacity:0.13468013"
       d="m 331.33003,307.87976 c 0,0 -57.57869,56.56854 -13.13198,122.22845 l 76.7716,0 c 0,0 27.27411,-74.75128 -11.11168,-118.18784 z"
       id="path3938"
       inkscape:connector-curvature="0" />
    <path
       sodipodi:type="arc"
       style="fill:#ffffff;fill-opacity:1;fill-rule:nonzero;stroke:none;filter:url(#filter3968)"
       id="path3958"
       sodipodi:cx="500.71429"
       sodipodi:cy="342.71933"
       sodipodi:rx="22.142857"
       sodipodi:ry="7.5"
       d="m 522.85715,342.71933 a 22.142857,7.5 0 1 1 -44.28571,0 22.142857,7.5 0 1 1 44.28571,0 z"
       transform="matrix(0.66708514,0.74498148,-0.74498148,0.66708514,438.48597,-289.66559)"
       inkscape:transform-center-x="6.3859458"
       inkscape:transform-center-y="-0.73906575" />
    <path
       sodipodi:type="arc"
       style="fill:#ffffff;stroke:none;filter:url(#filter3808)"
       id="path3972"
       sodipodi:cx="203.21428"
       sodipodi:cy="411.64789"
       sodipodi:rx="31.785715"
       sodipodi:ry="10.714286"
       d="m 234.99999,411.64789 a 31.785715,10.714286 0 1 1 -63.57143,0 31.785715,10.714286 0 1 1 63.57143,0 z"
       transform="matrix(-0.29342923,-0.45683649,0.38570813,-0.40462112,100.597,842.60102)" />
  </g>
</svg>
